<svg xmlns="http://www.w3.org/2000/svg" width="23.639" height="23.575" viewBox="0 0 23.639 23.575">
  <g id="Grupo_65" data-name="Grupo 65" transform="translate(-638.241 -756.379)">
    <g id="Grupo_63" data-name="Grupo 63">
      <path id="Trazado_59" data-name="Trazado 59" d="M661.595,778.295l-4.345-4.346a7.717,7.717,0,1,0-1.353,1.4l4.324,4.324a.972.972,0,0,0,1.374-1.374Zm-10.5-3.2a5.746,5.746,0,1,1,5.745-5.746A5.752,5.752,0,0,1,651.095,775.095Z" fill="#5751ff"/>
    </g>
    <g id="Grupo_64" data-name="Grupo 64">
      <path id="Trazado_60" data-name="Trazado 60" d="M646.491,775.029h-7.25a1,1,0,0,1-1-1v-16.65a1,1,0,0,1,1-1h13.4a1,1,0,0,1,1,1v5.5a1,1,0,0,1-2,0v-4.5h-11.4v14.65h6.25a1,1,0,0,1,0,2Z" fill="#5751ff"/>
    </g>
  </g>
</svg>
